<?xml version="1.0" standalone="no"?>
<!DOCTYPE svg PUBLIC "-//W3C//DTD SVG 20010904//EN"
 "http://www.w3.org/TR/2001/REC-SVG-20010904/DTD/svg10.dtd">
<svg version="1.0" xmlns="http://www.w3.org/2000/svg"
 width="36pt" height="36pt" viewBox="0 0 36.000000 36.000000"
 >

<g transform="translate(0.000000,36.000000) scale(0.100000,-0.100000)"
fill="#000000" stroke="none">
<path d="M96 344 c-18 -47 -2 -64 64 -64 48 0 67 21 52 55 -12 25 -36 33 -47
15 -4 -7 -12 -7 -25 0 -26 14 -37 13 -44 -6z"/>
<path d="M55 280 c-4 -6 -1 -19 7 -28 8 -9 21 -32 28 -50 22 -57 75 -69 109
-26 12 15 21 35 21 46 0 10 7 21 15 24 8 4 15 15 15 26 0 17 -4 19 -22 12 -30
-10 -129 -11 -149 -1 -10 5 -20 4 -24 -3z"/>
<path d="M259 159 c-16 -16 -20 -29 -16 -54 4 -25 1 -38 -14 -51 -20 -18 -26
-54 -9 -54 5 0 19 13 32 30 15 20 30 30 48 30 54 0 78 62 40 100 -26 26 -55
25 -81 -1z m71 -13 c6 -8 10 -25 8 -38 -2 -19 -9 -23 -38 -23 -29 0 -36 4 -38
23 -4 28 14 52 38 52 10 0 23 -7 30 -14z"/>
<path d="M61 116 c-46 -24 -59 -42 -60 -88 l-1 -28 95 0 c74 0 95 3 95 14 0 7
9 25 20 39 27 35 26 65 -5 79 -18 8 -28 8 -39 -1 -10 -8 -16 -9 -21 -1 -9 15
-34 11 -84 -14z"/>
<path d="M266 25 c-16 -24 -16 -25 9 -25 18 0 25 5 25 19 0 31 -16 33 -34 6z"/>
</g>
</svg>
